# xmcd CD database file
#
# Track frame offsets:
#	150
#	15092
#	27112
#	40787
#	67487
#	78284
#	103325
#	127514
#	150788
#	171260
#	182925
#	204797
#	218930
#	230905
#	243709
#	258662
#	267512
#	280822
#	286562
#
# Disc length: 3995 seconds
#
# Revision: 0
# Processed by: cddbd v1.5PL3 Copyright (c) Steve Scherf et al.
# Submitted via: CDex 1.50
#
DISCID=070f9913
DTITLE=Various Artist - Harmonica Blues
DYEAR=1900
DGENRE=Blues
TTITLE0=Little mac Simmons/You Mistreated Me Baby
TTITLE1=Snooky Pryor/It Seem Like a Dream
TTITLE2=Walter 'Shakey' Horton/Hard Hearted Woman
TTITLE3=Billy Branch/Everything Gonna Be Alright
TTITLE4=James Cotton/Dealin' with the Devil
TTITLE5=Little Arthur Duncan/Kansas City
TTITLE6=Carey Bell/One Day
TTITLE7=J. Monque'd /Aice and Gravy Fever
TTITLE8=Oscar Harp/Caress Me Baby
TTITLE9=Martin Lang/Martin Leaps In
TTITLE10=Doc Terry/Born in the Delta
TTITLE11=Sonny Boy Williamson/Blue Bird Blues
TTITLE12=Jazz Gillum/I'm Still Walking the Hi-Way
TTITLE13=Sonny Terry/Goin' Down Slow
TTITLE14=Jerry McCain/It Must Be Love
TTITLE15=Kid Thomas/Rockin' this Joint Tonight
TTITLE16=George 'Harmonica' Smith/ I Don't Know
TTITLE17=Hermann Alexander/Baby Please Don't Go
TTITLE18=Ce Dell Davis/When I Woke Up Last Morning
EXTD=
EXTT0=
EXTT1=
EXTT2=
EXTT3=
EXTT4=
EXTT5=
EXTT6=
EXTT7=
EXTT8=
EXTT9=
EXTT10=
EXTT11=
EXTT12=
EXTT13=
EXTT14=
EXTT15=
EXTT16=
EXTT17=
EXTT18=
PLAYORDER=
